<?xml version="1.0" encoding="utf-8"?>
<!-- Generator: Adobe Illustrator 27.3.1, SVG Export Plug-In . SVG Version: 6.00 Build 0)  -->
<svg version="1.1" id="Layer_1" xmlns="http://www.w3.org/2000/svg" xmlns:xlink="http://www.w3.org/1999/xlink" x="0px" y="0px"
	 viewBox="0 0 750 150" style="enable-background:new 0 0 750 150;" xml:space="preserve">
<style type="text/css">
	.st0{fill:#284B63;}
</style>
<g>
	<g>
		<path class="st0" d="M73.1,90.9c0.5-0.9,0-1.7-1-2.2c-2.1-1-6.2-1.4-10.7,0.5C66,91.1,71.9,93.3,73.1,90.9z"/>
		<path class="st0" d="M52.9,95.5c-1.7,2-3.2,4.4-4.6,7.3c-3.6,7.1-8.9,8.4-13.2,6.3c-3.8-1.9-4.9-6.2-2.5-11
			c0.1-0.3,0.4-0.6,0.6-0.9c-3.8,1.1-8.3,1.2-12.9-1.2c-9.5-4.8-10.9-15.8-6.1-25.4c7.4-14.8,23.3-20.8,33-16c6,3,8.6,8.5,5.8,14.2
			c-2.1,4.2-6.8,6.9-10.8,4.9c-2.7-1.4-4.5-4.4-3.4-6.6c0.1-0.2,0.3-0.4,0.5-0.6c0.5-0.6,0.9-1.1,1.1-1.7c0.7-1.5,0.6-2.7-0.4-3.2
			c-2.4-1.2-9,3.7-12.4,10.4c-3.4,6.8-2.8,14.2,2.4,16.8c4.9,2.4,9.3-0.8,11.7-1.4c7.1-7.9,17.2-19.8,26.2-37.7c0.5-1,1.1-2,1.8-2.8
			c-7.4-6.3-16.9-10.1-27.4-10.1C18.9,36.8,0,55.7,0,79c0,23.3,18.9,42.2,42.2,42.2c5.1,0,9.9-0.9,14.4-2.5
			C51.7,112.8,51.6,102.1,52.9,95.5z"/>
		<path class="st0" d="M65.6,96.1c-0.5,0.9-0.5,10.4,3,15.8c4.9-3.9,8.9-8.9,11.7-14.6C75.4,98.5,69.8,97.5,65.6,96.1z"/>
		<path class="st0" d="M84.5,78.9c0-7.1-1.8-13.7-4.8-19.6C75,66.3,66.3,76.9,60,84.3C64.8,81.4,76.3,75.1,84.5,78.9z"/>
	</g>
</g>
<g>
	<g>
		<g>
			<path class="st0" d="M122.9,105.1c-4.5,0-8.4-1-11.9-2.9c-3.4-2-6.1-4.6-8.1-8.1c-2-3.4-2.9-7.4-2.9-11.9c0-4.5,1-8.4,2.9-11.9
				c1.9-3.4,4.6-6.1,8-8.1s7.3-2.9,11.7-2.9c4.3,0,8.2,1,11.7,3.1c3.5,2.1,6.1,5,7.8,8.9l-9.1,3.5c-0.9-1.9-2.4-3.5-4.3-4.6
				c-1.9-1.2-4.1-1.7-6.5-1.7c-2.4,0-4.5,0.6-6.4,1.8c-1.9,1.2-3.3,2.8-4.4,4.9c-1,2.1-1.6,4.4-1.6,7.1c0,2.7,0.5,5.1,1.6,7.1
				c1.1,2.1,2.6,3.7,4.5,4.9c1.9,1.2,4,1.8,6.4,1.8c2.4,0,4.6-0.6,6.5-1.9c1.9-1.3,3.3-3,4.3-5.1l9.1,3.5c-1.7,4-4.3,7-7.7,9.3
				C131.2,104,127.3,105.1,122.9,105.1z"/>
			<path class="st0" d="M150.1,104L150,42.1h9.8l0.1,61.9H150.1z M179.7,81.7c0-3.5-0.4-6.2-1.2-8.1c-0.8-1.9-1.9-3.2-3.4-4
				c-1.4-0.8-3.1-1.1-4.9-1.1c-3.3-0.1-5.9,1-7.6,3.2c-1.8,2.2-2.7,5.4-2.7,9.5h-3.8c0-4.6,0.7-8.5,2.1-11.8
				c1.4-3.3,3.3-5.8,5.8-7.5c2.5-1.7,5.5-2.6,8.9-2.6c5.2,0,9.3,1.6,12.2,4.8c2.9,3.2,4.4,8.2,4.4,14.9L179.7,81.7z M179.7,104V81.7
				l9.8-2.6v25H179.7z"/>
			<path class="st0" d="M199.3,104V60.4h9.8V104H199.3z M205.8,80.8c0-4.7,0.9-8.6,2.7-11.6c1.8-3,4.1-5.3,7-6.8
				c2.9-1.5,5.9-2.2,9-2.2v9.3c-2.7,0-5.2,0.4-7.6,1.1c-2.4,0.7-4.3,1.9-5.7,3.5c-1.5,1.6-2.2,3.8-2.2,6.5L205.8,80.8z"/>
			<path class="st0" d="M236.5,52.1c-1.6,0-2.9-0.6-4.1-1.7c-1.1-1.1-1.7-2.5-1.7-4.1s0.6-2.9,1.7-4c1.1-1.1,2.5-1.7,4.1-1.7
				c1.6,0,2.9,0.6,4.1,1.7c1.1,1.1,1.7,2.4,1.7,4s-0.6,2.9-1.7,4.1C239.4,51.5,238.1,52.1,236.5,52.1z M231.6,104l0.1-43.7h9.7
				l-0.1,43.7H231.6z"/>
			<path class="st0" d="M268.7,105.1c-2.9,0-5.6-0.4-8-1.3s-4.5-2.1-6.3-3.7c-1.7-1.6-3.1-3.5-4-5.6l8.5-3.8c0.9,1.6,2.2,3,3.9,4.1
				c1.7,1.1,3.6,1.7,5.7,1.7c2.3,0,4.1-0.4,5.5-1.2c1.4-0.8,2.1-1.9,2.1-3.3c0-1.3-0.5-2.4-1.6-3.1c-1-0.7-2.5-1.3-4.5-1.8l-4.1-1.1
				c-4.1-1-7.4-2.7-9.7-5c-2.3-2.3-3.5-4.9-3.5-7.9c0-4.4,1.4-7.7,4.2-10.1c2.8-2.4,6.9-3.6,12.2-3.6c2.7,0,5.1,0.4,7.4,1.2
				c2.2,0.8,4.2,1.9,5.8,3.3c1.6,1.4,2.8,3.1,3.4,5l-8.1,3.7c-0.6-1.5-1.7-2.6-3.3-3.4c-1.6-0.8-3.4-1.2-5.4-1.2
				c-2,0-3.5,0.4-4.6,1.3c-1.1,0.8-1.7,2-1.7,3.5c0,0.9,0.5,1.7,1.5,2.4c1,0.7,2.4,1.3,4.3,1.8l5.2,1.2c2.9,0.7,5.2,1.8,7,3.3
				c1.8,1.5,3.1,3.1,4,5c0.9,1.8,1.3,3.7,1.3,5.5c0,2.6-0.7,4.9-2.2,6.9c-1.5,2-3.5,3.5-6.1,4.6C274.9,104.5,272,105.1,268.7,105.1z
				"/>
			<path class="st0" d="M298.2,105.3c-1.7,0-3.1-0.6-4.3-1.8c-1.2-1.2-1.8-2.6-1.8-4.3c0-1.7,0.6-3.1,1.8-4.4
				c1.2-1.2,2.6-1.8,4.3-1.8c1.7,0,3.1,0.6,4.4,1.8c1.2,1.2,1.8,2.7,1.8,4.4c0,1.7-0.6,3.1-1.8,4.3
				C301.4,104.7,299.9,105.3,298.2,105.3z"/>
			<path class="st0" d="M313.8,104V60.4h9.2l0.6,8V104H313.8z M343.4,81.7c0-3.5-0.4-6.2-1.2-8.1c-0.8-1.9-1.9-3.2-3.3-4
				c-1.4-0.8-3.1-1.1-5-1.1c-3.3-0.1-5.8,1-7.6,3.2c-1.8,2.2-2.7,5.4-2.7,9.5h-3.7c0-4.6,0.7-8.5,2-11.8c1.3-3.3,3.3-5.8,5.8-7.5
				c2.5-1.7,5.5-2.6,8.9-2.6c5.3,0,9.4,1.6,12.3,4.8s4.3,8.2,4.3,14.9L343.4,81.7z M343.4,104V81.7l9.8-2.6v25H343.4z M373.1,81.7
				c0-3.5-0.4-6.2-1.2-8.1c-0.8-1.9-1.9-3.2-3.4-4c-1.4-0.8-3.1-1.1-4.9-1.1c-3.3-0.1-5.9,1-7.7,3.2c-1.8,2.2-2.7,5.4-2.7,9.5h-3.7
				c0-4.6,0.7-8.5,2-11.8c1.3-3.3,3.3-5.8,5.8-7.5c2.5-1.7,5.5-2.6,8.9-2.6c5.3,0,9.4,1.6,12.3,4.8c2.9,3.2,4.3,8.2,4.3,14.9
				L373.1,81.7z M373.1,104V81.7l9.7-2.6v25H373.1z"/>
			<path class="st0" d="M412.8,105.1c-4.4,0-8.3-1-11.7-2.9c-3.4-2-6-4.6-7.9-8.1s-2.9-7.4-2.9-11.9c0-4.5,0.9-8.4,2.8-11.9
				c1.9-3.4,4.5-6.1,7.9-8.1c3.4-2,7.2-2.9,11.5-2.9c4.4,0,8.3,1,11.7,2.9c3.4,2,6,4.6,7.9,8.1c1.9,3.4,2.8,7.4,2.8,11.9
				c0,4.5-0.9,8.4-2.8,11.9s-4.5,6.1-7.9,8.1C420.9,104.1,417.1,105.1,412.8,105.1z M412.8,96.1c2.4,0,4.6-0.6,6.4-1.8
				c1.8-1.2,3.3-2.8,4.3-4.9c1-2.1,1.6-4.5,1.6-7.2c0-2.7-0.5-5.1-1.6-7.2c-1-2.1-2.5-3.7-4.4-4.9c-1.9-1.2-4.1-1.8-6.5-1.8
				s-4.6,0.6-6.5,1.8c-1.9,1.2-3.3,2.8-4.4,4.9c-1,2.1-1.6,4.5-1.6,7.2c0,2.7,0.5,5.1,1.6,7.2c1.1,2.1,2.6,3.7,4.5,4.9
				C408.2,95.5,410.3,96.1,412.8,96.1z"/>
			<path class="st0" d="M443.4,104V60.4h9.2l0.6,8V104H443.4z M473,81.7c0-3.5-0.4-6.2-1.2-8.1c-0.8-1.9-1.9-3.2-3.3-4
				c-1.4-0.8-3.1-1.1-5-1.1c-3.3-0.1-5.8,1-7.6,3.2c-1.8,2.2-2.7,5.4-2.7,9.5h-3.7c0-4.6,0.7-8.5,2-11.8c1.3-3.3,3.3-5.8,5.8-7.5
				c2.5-1.7,5.5-2.6,8.9-2.6c5.3,0,9.4,1.6,12.3,4.8c2.9,3.2,4.3,8.2,4.3,14.9L473,81.7z M473,104V81.7l9.8-2.6v25H473z"/>
			<path class="st0" d="M492.7,104V60.4h9.8V104H492.7z M499.1,80.8c0-4.7,0.9-8.6,2.7-11.6c1.8-3,4.1-5.3,7-6.8
				c2.9-1.5,5.9-2.2,9-2.2v9.3c-2.7,0-5.2,0.4-7.6,1.1c-2.4,0.7-4.3,1.9-5.7,3.5c-1.5,1.6-2.2,3.8-2.2,6.5L499.1,80.8z"/>
			<path class="st0" d="M544.4,105.1c-4.4,0-8.3-1-11.7-2.9c-3.4-2-6-4.6-7.9-8.1s-2.9-7.4-2.9-11.9c0-4.5,0.9-8.4,2.8-11.9
				c1.9-3.4,4.5-6.1,7.9-8.1c3.4-2,7.2-2.9,11.5-2.9c4.4,0,8.3,1,11.7,2.9c3.4,2,6,4.6,7.9,8.1c1.9,3.4,2.8,7.4,2.8,11.9
				c0,4.5-0.9,8.4-2.8,11.9s-4.5,6.1-7.9,8.1C552.6,104.1,548.8,105.1,544.4,105.1z M544.4,96.1c2.4,0,4.6-0.6,6.4-1.8
				c1.8-1.2,3.3-2.8,4.3-4.9c1-2.1,1.6-4.5,1.6-7.2c0-2.7-0.5-5.1-1.6-7.2c-1-2.1-2.5-3.7-4.4-4.9c-1.9-1.2-4.1-1.8-6.5-1.8
				s-4.6,0.6-6.5,1.8c-1.9,1.2-3.3,2.8-4.4,4.9c-1,2.1-1.6,4.5-1.6,7.2c0,2.7,0.5,5.1,1.6,7.2c1.1,2.1,2.6,3.7,4.5,4.9
				C539.8,95.5,542,96.1,544.4,96.1z"/>
			<path class="st0" d="M594.6,105.1c-4.2,0-8-1-11.3-2.9c-3.3-2-5.9-4.6-7.8-8.1c-1.9-3.4-2.8-7.4-2.8-11.9c0-4.5,1-8.4,2.9-11.9
				c1.9-3.4,4.6-6.1,7.9-8.1c3.3-2,7.2-2.9,11.5-2.9c3.9,0,7.4,1,10.5,3c3.1,2,5.6,4.9,7.5,8.7c1.9,3.8,2.8,8.3,2.8,13.5h-9.9
				c0-3.8-0.5-6.9-1.4-9.3c-0.9-2.4-2.2-4.3-3.8-5.5c-1.7-1.2-3.7-1.8-6.1-1.8c-2.5,0-4.7,0.6-6.5,1.7c-1.8,1.1-3.2,2.7-4.1,4.8
				c-0.9,2.1-1.4,4.8-1.4,8c0,2.9,0.6,5.3,1.7,7.3c1.1,2,2.7,3.6,4.6,4.7c2,1.1,4.1,1.6,6.5,1.6c2.6,0,4.8-0.6,6.5-1.8
				c1.7-1.2,3-2.7,3.9-4.6l9,3.8c-1.2,2.3-2.8,4.4-4.7,6.1c-1.9,1.7-4.1,3.1-6.7,4C600.8,104.6,597.9,105.1,594.6,105.1z
				 M579.1,84.6v-7.8h31.4v7.8H579.1z"/>
		</g>
	</g>
</g>
<text transform="matrix(1 0 0 1 775.5811 -78.7744)" style="font-family:'MyriadPro-Regular'; font-size:12px;">Lorem ipsum</text>
</svg>
